<svg id="Layer_1" data-name="Layer 1" xmlns="http://www.w3.org/2000/svg" viewBox="0 0 154.23 157.35"><title>Print</title><path d="M98.84,210c-3.13,0-6,.08-8.77,0a22.54,22.54,0,0,1-22-22.12q-.3-30,0-60a22.4,22.4,0,0,1,21.53-22c1.65-.09,3.29-.16,5.88-.28V87.71c0-16,2.13-18.08,18.19-18.08q33.5,0,67,0c10.13,0,13.83,3.73,13.9,13.85.05,6.83.07,13.66.13,20.49a6.88,6.88,0,0,0,.53,1.55c1.5.09,3.25.2,5,.29,12.22.63,21.66,10.07,21.77,22.35.19,19.66.16,39.33,0,59-.09,13-9.88,22.59-22.86,22.86-2.66,0-5.31,0-8.1,0-.25,1.62-.43,2.91-.64,4.21-1.19,7.67-6.49,12.6-14.3,12.65q-31,.19-62,0C105.14,226.83,101,222.14,98.84,210Zm91.75-12.41c3,0,5.33.08,7.63,0,7.22-.3,11.28-4.05,11.34-11.2q.24-28.49,0-57c-.06-7.14-4.22-11.23-11.29-11.24q-53.24-.12-106.47,0c-7.11,0-11.34,4-11.4,11.13q-.22,28.74,0,57.49c0,5.69,3.18,9.6,8.26,10.36,3.35.51,6.83.1,10.71.1,0-6.18-.11-12,0-17.8.22-9.85,5.86-15.34,15.76-15.36q29.74-.07,59.49,0c10.13,0,15.72,5.56,15.9,15.74C190.67,185.45,190.59,191.09,190.59,197.6ZM145.5,176.67c-9.83,0-19.66.07-29.49,0-2.92,0-4.15.84-4.1,4,.16,9.83.18,19.66,0,29.49-.06,3.35,1.16,4.27,4.34,4.26q28.74-.16,57.48,0c3.15,0,4.44-.84,4.37-4.23-.19-9.66-.21-19.33,0-29,.08-3.58-1.21-4.58-4.61-4.52C164.16,176.78,154.83,176.66,145.5,176.67Zm-37.3-71.3h73.4v-23H108.2Z" transform="translate(-67.88 -69.63)"/><path d="M182.41,140.79c-2.31,0-5,.78-6.83-.2-2.26-1.24-5.14-3.89-5.16-6s2.88-5.5,5-5.95c4.43-1,9.22-.6,13.82-.25a5.74,5.74,0,0,1,5.65,6.34c-.13,3.67-2.49,5.68-6,6a63,63,0,0,1-6.45,0Z" transform="translate(-67.88 -69.63)"/></svg>