<svg id="Layer_1" data-name="Layer 1" xmlns="http://www.w3.org/2000/svg" viewBox="0 0 288 288"><title>Product Mangement</title><path d="M49.88,179.2c0-7.16.13-14.33-.05-21.49-.11-4.4,1.75-7,5.65-9,11.43-5.79,22.64-12,34.08-17.76,3.23-1.63,4.1-3.68,4-7.05-.24-11.82-.23-23.64-.3-35.47a8.68,8.68,0,0,1,5-8.47q20.59-10.69,41.09-21.59a11.1,11.1,0,0,1,11.35.05c13.66,7.26,27.39,14.38,41.1,21.54,3.81,2,5.12,5,5,9.37-.31,12.16-.35,24.32-.19,36.47a6.32,6.32,0,0,0,3,4.42c11.53,6.31,23.12,12.52,34.87,18.4,3.94,2,5.69,4.48,5.65,8.86-.13,14.66-.09,29.33,0,44,0,4.08-1.37,6.75-5.17,8.71-14,7.23-28,14.69-41.87,22.2-3.3,1.78-6.11,1.58-9.33-.18-11.81-6.47-23.68-12.87-35.67-19a8,8,0,0,0-6.33,0c-12,6.12-23.86,12.53-35.7,18.95-3.16,1.72-6,2.07-9.32.24-13.43-7.34-26.91-14.58-40.5-21.6-4.55-2.35-6.69-5.43-6.46-10.64.31-7,.08-14,.08-21Zm147,33.3c9.09-4.79,17.3-9.08,25.45-13.48.91-.5,2.07-1.64,2.08-2.49.16-8.72.1-17.45.1-26.81-9,4.77-17.29,9-25.41,13.49a4.74,4.74,0,0,0-2.13,3.39C196.76,194.9,196.85,203.2,196.85,212.5Zm-103.73,0c0-9.42,0-18-.09-26.56a3.73,3.73,0,0,0-1.84-2.55c-8.26-4.47-16.59-8.81-25.69-13.6,0,9.34,0,17.92.06,26.49A3.31,3.31,0,0,0,67,198.66C75.43,203.21,83.91,207.64,93.12,212.49ZM153,169.81c0,9.08,0,17.22.06,25.36,0,1.17.45,3,1.27,3.41,8.51,4.69,17.13,9.15,26.52,14.1,0-9.46.07-17.88-.1-26.3a4.32,4.32,0,0,0-2.07-3C170.4,178.91,162.05,174.58,153,169.81Zm-43.84,42.85c9.41-4.95,17.9-9.39,26.35-13.9a2.72,2.72,0,0,0,1.4-1.85c.1-8.82.07-17.64.07-27-9.07,4.75-17.32,9-25.43,13.45a5.29,5.29,0,0,0-2.29,3.83C109,195.28,109.14,203.41,109.14,212.66ZM137,143.3c0-9,0-17.19-.06-25.35,0-1.14-.53-2.85-1.36-3.31-8.53-4.69-17.18-9.18-26.52-14.11,0,9.3-.07,17.73.09,26.16a4.24,4.24,0,0,0,2,2.94C119.49,134.14,127.87,138.48,137,143.3Zm43.89-42.74c-9.33,4.92-17.94,9.42-26.5,14a3.14,3.14,0,0,0-1.35,2.32c-.1,8.53-.06,17.06-.06,26.26,9.13-4.8,17.49-9.13,25.77-13.63a4.23,4.23,0,0,0,2-2.92C181,118.23,180.91,109.82,180.91,100.56ZM118.25,87.32c8.74,4.6,16.47,8.74,24.29,12.7,1.17.59,3.06,1,4.11.42,8.18-4.12,16.23-8.49,25-13.17-8.81-4.66-16.82-9-24.91-13.09a4.65,4.65,0,0,0-3.66,0C135,78.35,127.05,82.66,118.25,87.32Zm43.8,69.21c8.58,4.52,16.44,8.77,24.43,12.76a5.84,5.84,0,0,0,4.55-.06c8-4,15.86-8.27,24.37-12.77-8.53-4.53-16.5-8.88-24.61-13a6,6,0,0,0-4.58.39C178.38,147.84,170.65,152,162.05,156.53Zm-34.17,0c-8.54-4.48-16.44-8.71-24.43-12.74a5.27,5.27,0,0,0-4.14-.26c-8.13,4.1-16.13,8.43-24.7,13C83.14,161,91,165.25,99,169.31a5.32,5.32,0,0,0,4.15.2C111.28,165.41,119.28,161.07,127.88,156.52Z"/></svg>