<svg id="Layer_1" data-name="Layer 1" xmlns="http://www.w3.org/2000/svg" viewBox="0 0 288 288"><title>Staff Management</title><path d="M56.84,190.23C62.73,168,76.74,154,99.34,149c28.21-6.23,57.21,9.83,64.2,35.82,1.52,5.64,1.42,11.71,2.12,18.05H56.84Z"/><path d="M214.31,203H177.77c0-15.53-4.12-29.73-14.68-41.39,13.21-16.87,49-18.56,68.07-3.67-4,7-9,13.57-11.75,21S216,194.61,214.31,203Z"/><path d="M198.83,85a26.06,26.06,0,1,1,0,52.12,26.06,26.06,0,0,1,0-52.12Z"/><path d="M116,85a26.05,26.05,0,1,1-.6,52.1C101,136.89,89.86,125.22,89.8,110.3,89.74,96.44,101.66,84.93,116,85Z"/></svg>