<svg id="Layer_1" data-name="Layer 1" xmlns="http://www.w3.org/2000/svg" viewBox="0 0 288 288"><title>Survey Management</title><path d="M166.61,144.25q0,29.48,0,59c0,6.22-.69,6.92-6.87,6.94-10.33,0-20.66-.09-31,.06-4.34.06-6.35-1.34-6.34-6q.18-60.21,0-120.43c0-4.25,1.62-6,5.92-5.95q16.23.22,32.48,0c4.35-.06,5.85,1.76,5.83,6C166.55,103.94,166.61,124.09,166.61,144.25Zm-8.18-57.87H131.05v24h27.38Z"/><path d="M177.62,143.83q0-29.22,0-58.46c0-7,.51-7.52,7.28-7.53,10.33,0,20.66.11,31,0,4.28-.07,5.92,1.55,5.91,5.87q-.15,60.21,0,120.43c0,4.61-1.84,6.19-6.25,6.12-10.33-.16-20.66,0-31-.06-6.28,0-6.93-.67-6.94-6.86Q177.61,173.56,177.62,143.83ZM186,86.13v51.63h27.3V86.13Z"/><path d="M110.61,143.82q0,29.7,0,59.42c0,6.19-.69,6.89-6.89,6.91-10.32,0-20.64-.13-31,.07-4.64.09-6.57-1.49-6.55-6.34Q66.39,144,66.23,84c0-4.41,1.58-6.34,6.16-6.26q16,.28,32,0c4.87-.1,6.36,2,6.32,6.61C110.53,104.2,110.61,124,110.61,143.82Zm-8.37-57.53H74.89v76.33h27.35Z"/></svg>